<?xml version="1.0" encoding="UTF-8" standalone="no"?>
<!DOCTYPE svg PUBLIC "-//W3C//DTD SVG 1.1//EN"
 "http://www.w3.org/Graphics/SVG/1.1/DTD/svg11.dtd">
<!-- Generated by graphviz version 5.0.0 (20220707.1540)
 -->
<!-- Title: dependencies Pages: 1 -->
<svg width="997pt" height="247pt"
 viewBox="0.00 0.00 997.00 246.80" xmlns="http://www.w3.org/2000/svg" xmlns:xlink="http://www.w3.org/1999/xlink">
<g id="graph0" class="graph" transform="scale(1 1) rotate(0) translate(4 242.8)">
<title>dependencies</title>
<polygon fill="white" stroke="transparent" points="-4,4 -4,-242.8 993,-242.8 993,4 -4,4"/>
<text text-anchor="middle" x="494.5" y="-8.2" font-family="sans-serif" font-size="14.00">dependencies</text>
<g id="clust1" class="cluster">
<title>cluster_AppModule</title>
<polygon fill="none" stroke="black" stroke-dasharray="1,5" points="8,-32.8 8,-230.8 981,-230.8 981,-32.8 8,-32.8"/>
</g>
<g id="clust2" class="cluster">
<title>cluster_AppModule_declarations</title>
<polygon fill="none" stroke="black" points="16,-40.8 16,-92.8 973,-92.8 973,-40.8 16,-40.8"/>
</g>
<g id="clust12" class="cluster">
<title>cluster_AppModule_bootstrap</title>
<polygon fill="none" stroke="black" points="452,-170.8 452,-222.8 576,-222.8 576,-170.8 452,-170.8"/>
</g>
<!-- AppComponent -->
<g id="node1" class="node">
<title>AppComponent</title>
<polygon fill="#ffffb3" stroke="black" points="964.94,-84.8 859.06,-84.8 859.06,-48.8 964.94,-48.8 964.94,-84.8"/>
<text text-anchor="middle" x="912" y="-62.6" font-family="Times,serif" font-size="14.00">AppComponent</text>
</g>
<!-- AppModule -->
<g id="node8" class="node">
<title>AppModule</title>
<polygon fill="#8dd3c7" stroke="black" points="555.66,-149.8 552.66,-153.8 531.66,-153.8 528.66,-149.8 472.34,-149.8 472.34,-113.8 555.66,-113.8 555.66,-149.8"/>
<text text-anchor="middle" x="514" y="-127.6" font-family="Times,serif" font-size="14.00">AppModule</text>
</g>
<!-- AppComponent&#45;&gt;AppModule -->
<g id="edge1" class="edge">
<title>AppComponent&#45;&gt;AppModule</title>
<path fill="none" stroke="black" d="M912,-85.09C912,-107.01 912,-140.8 912,-140.8 912,-140.8 565.84,-140.8 565.84,-140.8"/>
<polygon fill="black" stroke="black" points="565.84,-137.3 555.84,-140.8 565.84,-144.3 565.84,-137.3"/>
</g>
<!-- FooterComponent -->
<g id="node2" class="node">
<title>FooterComponent</title>
<polygon fill="#ffffb3" stroke="black" points="840.88,-84.8 723.12,-84.8 723.12,-48.8 840.88,-48.8 840.88,-84.8"/>
<text text-anchor="middle" x="782" y="-62.6" font-family="Times,serif" font-size="14.00">FooterComponent</text>
</g>
<!-- FooterComponent&#45;&gt;AppModule -->
<g id="edge2" class="edge">
<title>FooterComponent&#45;&gt;AppModule</title>
<path fill="none" stroke="black" d="M782,-84.91C782,-104.14 782,-131.8 782,-131.8 782,-131.8 565.88,-131.8 565.88,-131.8"/>
<polygon fill="black" stroke="black" points="565.88,-128.3 555.88,-131.8 565.87,-135.3 565.88,-128.3"/>
</g>
<!-- HomeComponent -->
<g id="node3" class="node">
<title>HomeComponent</title>
<polygon fill="#ffffb3" stroke="black" points="704.55,-84.8 589.45,-84.8 589.45,-48.8 704.55,-48.8 704.55,-84.8"/>
<text text-anchor="middle" x="647" y="-62.6" font-family="Times,serif" font-size="14.00">HomeComponent</text>
</g>
<!-- HomeComponent&#45;&gt;AppModule -->
<g id="edge3" class="edge">
<title>HomeComponent&#45;&gt;AppModule</title>
<path fill="none" stroke="black" d="M647,-84.83C647,-101.2 647,-122.8 647,-122.8 647,-122.8 565.72,-122.8 565.72,-122.8"/>
<polygon fill="black" stroke="black" points="565.72,-119.3 555.72,-122.8 565.72,-126.3 565.72,-119.3"/>
</g>
<!-- LoginComponent -->
<g id="node4" class="node">
<title>LoginComponent</title>
<polygon fill="#ffffb3" stroke="black" points="571.27,-84.8 456.73,-84.8 456.73,-48.8 571.27,-48.8 571.27,-84.8"/>
<text text-anchor="middle" x="514" y="-62.6" font-family="Times,serif" font-size="14.00">LoginComponent</text>
</g>
<!-- LoginComponent&#45;&gt;AppModule -->
<g id="edge4" class="edge">
<title>LoginComponent&#45;&gt;AppModule</title>
<path fill="none" stroke="black" d="M514,-84.91C514,-84.91 514,-103.79 514,-103.79"/>
<polygon fill="black" stroke="black" points="510.5,-103.79 514,-113.79 517.5,-103.79 510.5,-103.79"/>
</g>
<!-- NavBarComponent -->
<g id="node5" class="node">
<title>NavBarComponent</title>
<polygon fill="#ffffb3" stroke="black" points="438.37,-84.8 313.63,-84.8 313.63,-48.8 438.37,-48.8 438.37,-84.8"/>
<text text-anchor="middle" x="376" y="-62.6" font-family="Times,serif" font-size="14.00">NavBarComponent</text>
</g>
<!-- NavBarComponent&#45;&gt;AppModule -->
<g id="edge5" class="edge">
<title>NavBarComponent&#45;&gt;AppModule</title>
<path fill="none" stroke="black" d="M376,-84.83C376,-101.2 376,-122.8 376,-122.8 376,-122.8 462.22,-122.8 462.22,-122.8"/>
<polygon fill="black" stroke="black" points="462.22,-126.3 472.22,-122.8 462.22,-119.3 462.22,-126.3"/>
</g>
<!-- SearchComponent -->
<g id="node6" class="node">
<title>SearchComponent</title>
<polygon fill="#ffffb3" stroke="black" points="295.92,-84.8 176.08,-84.8 176.08,-48.8 295.92,-48.8 295.92,-84.8"/>
<text text-anchor="middle" x="236" y="-62.6" font-family="Times,serif" font-size="14.00">SearchComponent</text>
</g>
<!-- SearchComponent&#45;&gt;AppModule -->
<g id="edge6" class="edge">
<title>SearchComponent&#45;&gt;AppModule</title>
<path fill="none" stroke="black" d="M236,-84.91C236,-104.14 236,-131.8 236,-131.8 236,-131.8 462.08,-131.8 462.08,-131.8"/>
<polygon fill="black" stroke="black" points="462.08,-135.3 472.08,-131.8 462.08,-128.3 462.08,-135.3"/>
</g>
<!-- ToolCardComponent -->
<g id="node7" class="node">
<title>ToolCardComponent</title>
<polygon fill="#ffffb3" stroke="black" points="158.49,-84.8 23.51,-84.8 23.51,-48.8 158.49,-48.8 158.49,-84.8"/>
<text text-anchor="middle" x="91" y="-62.6" font-family="Times,serif" font-size="14.00">ToolCardComponent</text>
</g>
<!-- ToolCardComponent&#45;&gt;AppModule -->
<g id="edge7" class="edge">
<title>ToolCardComponent&#45;&gt;AppModule</title>
<path fill="none" stroke="black" d="M91,-85.09C91,-107.01 91,-140.8 91,-140.8 91,-140.8 462.28,-140.8 462.28,-140.8"/>
<polygon fill="black" stroke="black" points="462.28,-144.3 472.28,-140.8 462.28,-137.3 462.28,-144.3"/>
</g>
<!-- AppComponent  -->
<g id="node9" class="node">
<title>AppComponent </title>
<polygon fill="#80b1d3" stroke="black" points="568.44,-214.8 459.56,-214.8 459.56,-178.8 568.44,-178.8 568.44,-214.8"/>
<text text-anchor="middle" x="514" y="-192.6" font-family="Times,serif" font-size="14.00">AppComponent </text>
</g>
<!-- AppModule&#45;&gt;AppComponent  -->
<g id="edge8" class="edge">
<title>AppModule&#45;&gt;AppComponent </title>
<path fill="none" stroke="black" stroke-dasharray="1,5" d="M514,-149.91C514,-149.91 514,-168.79 514,-168.79"/>
<polygon fill="black" stroke="black" points="510.5,-168.79 514,-178.79 517.5,-168.79 510.5,-168.79"/>
</g>
</g>
</svg>
